<svg width="100%" height="100%" viewBox="0 0 40 40" version="1.1" xmlns="http://www.w3.org/2000/svg">
  <path fill="#E17726" stroke="#E17726" stroke-width="0.25" d="M32.9582 1L23.1152 13.4951L25.7782 6.70273L32.9582 1Z"/>
  <path fill="#E27625" stroke="#E27625" stroke-width="0.25" d="M7.04183 1L16.7699 13.5892L14.2219 6.70273L7.04183 1Z"/>
  <path fill="#E27625" stroke="#E27625" stroke-width="0.25" d="M28.0801 28.8256L24.4975 35.7234L32.0208 38.2648L34.1948 28.9594L28.0801 28.8256Z"/>
  <path fill="#E27625" stroke="#E27625" stroke-width="0.25" d="M5.91978 28.9594L8.07873 38.2648L15.6021 35.7234L11.9944 28.8256L5.91978 28.9594Z"/>
  <path fill="#E27625" stroke="#E27625" stroke-width="0.25" d="M15.0454 18.3458L12.8472 22.4682L20.2964 22.9462L19.9424 14.7905L15.0454 18.3458Z"/>
  <path fill="#E27625" stroke="#E27625" stroke-width="0.25" d="M25.0546 18.3458L20.0576 14.6964L19.7036 22.9462L27.1528 22.4682L25.0546 18.3458Z"/>
  <path fill="#E27625" stroke="#E27625" stroke-width="0.25" d="M15.6021 35.7234L19.7052 32.9693L16.1976 29.0182L15.6021 35.7234Z"/>
  <path fill="#E27625" stroke="#E27625" stroke-width="0.25" d="M20.2948 32.9693L24.4975 35.7234L23.8776 29.0182L20.2948 32.9693Z"/>
</svg> 