<svg width="100%" height="100%" viewBox="0 0 40 40" version="1.1" xmlns="http://www.w3.org/2000/svg">
  <rect width="40" height="40" rx="20" fill="#3B99FC"/>
  <path d="M10.1323 17.2493C16.4663 10.9169 26.8792 10.9169 33.2133 17.2493L33.7806 17.8165C34.0731 18.109 34.0731 18.581 33.7806 18.8735L31.661 20.9923C31.5148 21.1386 31.2787 21.1386 31.1325 20.9923L30.3494 20.2093C25.8934 15.7542 17.452 15.7542 12.9962 20.2093L12.1397 21.0656C11.9935 21.2118 11.7573 21.2118 11.6111 21.0656L9.49139 18.9468C9.19889 18.6544 9.19889 18.1823 9.49139 17.8898L10.1323 17.2493ZM37.2485 21.284L39.0429 23.0779C39.3354 23.3704 39.3354 23.8424 39.0429 24.1349L29.7493 33.4268C29.1644 34.0116 28.2202 34.0116 27.6354 33.4268L21.0587 26.8517C20.9856 26.7785 20.8676 26.7785 20.7944 26.8517L14.2181 33.4268C13.6333 34.0116 12.6891 34.0116 12.1042 33.4268L2.80924 24.1349C2.51673 23.8424 2.51673 23.3704 2.80924 23.0779L4.60361 21.284C5.18845 20.6991 6.13261 20.6991 6.71745 21.284L13.2942 27.8591C13.3673 27.9322 13.4853 27.9322 13.5585 27.8591L20.1344 21.284C20.7192 20.6991 21.6634 20.6991 22.2482 21.284H22.2486L28.825 27.8591C28.8981 27.9322 29.0161 27.9322 29.0893 27.8591L35.6656 21.284C36.2504 20.6991 37.1946 20.6991 37.2485 21.284Z" fill="white"/>
</svg> 